<svg version="1.1" id="Layer_1" xmlns="http://www.w3.org/2000/svg" xmlns:xlink="http://www.w3.org/1999/xlink" x="0px" y="0px"
	 viewBox="0 0 1765.7 135.6" style="enable-background:new 0 0 1765.7 135.6;" xml:space="preserve">
<g id="Layer_2_copy_3">
	<polygon points="77.2,24.2 0.5,24.2 0.5,1.9 95.7,1.9 	"/>
</g>
<g id="Layer_2_copy_3-2">
	<polygon points="67.6,81 0,81 0,58.1 84,58.1 	"/>
</g>
<g id="Layer_2_copy_3-3">
	<polygon points="77.1,134.8 0,134.8 0,112 95.7,112 	"/>
</g>
<g id="Layer_4_copy">
	<rect y="58.1" width="23.7" height="76.7"/>
</g>
<g id="M">
	<g id="Layer_7">
		<path d="M121.1,1.2c-1.2,0-2.3,0.1-3.5,0.2v134.3h24.9V1C135.3,1,128.2,0.9,121.1,1.2L121.1,1.2z"/>
	</g>
	<g id="Layer_10">
		<polygon points="186.9,76.5 186.8,129 256.9,1 225,1 		"/>
		<rect x="232" y="129.6" width="24.9" height="6"/>
	</g>
	<g id="Layer_7_copy">
		<path d="M237.5,135.5c1.6-0.4,3.3-0.6,5.2-0.5c4.8,0.1,9.5,0,14.2-0.1V1L232,1.6v133.8
			C233.8,135.4,235.6,135.5,237.5,135.5L237.5,135.5z"/>
	</g>
	<g id="Layer_7_copy_4">
		<path d="M150.9,1.1c-9.9,0-19.9-0.2-29.8,0.1c-1,0-2.1,0.1-3.2,0.2L186.8,129l0.8-52.5L150.9,1.1L150.9,1.1z"/>
		<rect x="117.6" y="1.1" width="33.3" height="4.2"/>
	</g>
</g>
<g id="P">
	<path d="M280,71.5v64.2h23.8v-40h28.6c1.4,0,2.8-0.1,4.1-0.2c25.1-2,44.9-21.9,44.9-46.2S361.7,3.4,336.6,1.4H280v23.8
		c5.5-0.2,23.8,0,23.8,0h32.8c0,0,21.8,5.5,21.8,24.1s-21.8,22.6-21.8,22.6"/>
</g>
<g id="I">
	<rect x="396.3" y="1" width="24" height="134.8"/>
</g>
<g id="Layer_14">
	<rect x="446" y="1.6" width="24.6" height="134.6"/>
	<path d="M513.5,95.9c25.1-2,44.9-21.9,44.9-46.2S538.6,3.7,513.5,1.7h-56.6v23.8c5.5-0.2,23.8,0,23.8,0h32.8
		c0,0,21.8,5.5,21.8,24.1s-21.8,22.6-21.8,22.6"/>
	<path d="M550.1,135.9l-32.5-65.1L496.2,76l27.5,59.9C524,135.8,547.4,136,550.1,135.9L550.1,135.9z"/>
</g>
<g id="E">
	<g id="Layer_2_00000002358806161210073490000005042974866919100077_">
		<polygon points="650.2,25.2 573.2,25.2 573.2,2.4 668.8,2.4 		"/>
	</g>
	<g id="Layer_2_copy_2">
		<polygon points="640.8,82 573.2,82 573.2,59.1 657.1,59.1 		"/>
	</g>
	<g id="Layer_2_copy">
		<polygon points="650.2,135.8 573.2,135.8 573.2,113 668.8,113 		"/>
	</g>
	<g id="Layer_4">
		<rect x="573.2" y="59.1" width="23.7" height="76.7"/>
	</g>
</g>
<g id="Layer_22">
	<path d="M815.1,1.1c-37.2,0-67.4,30.2-67.4,67.4s30.2,67.4,67.4,67.4s67.4-30.2,67.4-67.4S852.4,1.1,815.1,1.1z
		 M813.2,116.2c-26.3,0-47.7-21.4-47.7-47.7s21.4-47.7,47.7-47.7s47.7,21.4,47.7,47.7S839.5,116.2,813.2,116.2z"/>
</g>
<g id="F">
	<g id="Layer_2_copy_4">
		<polygon points="986.3,24.9 909.2,24.9 909.2,2.1 1004.9,2.1 		"/>
	</g>
	<g id="Layer_2_copy_4-2">
		<polygon points="976.8,81.7 909.2,81.7 909.2,58.8 993.2,58.8 		"/>
	</g>
	<g id="Layer_2_copy_4-3">
		<line x1="909.2" y1="135.5" x2="909.2" y2="112.7"/>
	</g>
	<g id="Layer_4_copy_2">
		<rect x="909.2" y="58.8" width="23.7" height="76.7"/>
	</g>
</g>
<g id="Layer_31">
	<g id="Layer_28">
		<path d="M1210.1,59.1v76.1h-73.6c-32.5-4.3-57.5-32.1-57.5-65.7c0-35.3,27.3-65.1,62.1-67.2h70.5l-17.9,21.9l-0.5,0.7
			h-47.8c-24.7,0-44.6,20-44.6,44.6c0,24.7,20,44.6,44.6,44.6h40.8v-55L1210.1,59.1L1210.1,59.1z"/>
	</g>
	<g id="Layer_29_copy">
		<polygon points="1139.2,80.7 1209.5,80 1209.5,58.5 1154.8,58.5 		"/>
	</g>
</g>
<g id="Layer_33">
	<g id="Layer_32">
		<polygon points="1252,135.8 1224.8,135.6 1276.4,0.8 1300.2,1.2 		"/>
	</g>
	<g id="Layer_32_copy_2">
		<polygon points="1329.4,135.8 1356.6,135.6 1305,0.8 1281.1,1.2 		"/>
	</g>
</g>
<g id="M_copy">
	<g id="Layer_7_copy_2">
		<path d="M1388.9,1c-1.2,0-2.3,0.1-3.5,0.2v134.3h24.9V0.8C1403.2,0.8,1396.1,0.7,1388.9,1L1388.9,1z"/>
	</g>
	<g id="Layer_10_copy">
		<polygon points="1454.8,76.3 1454.7,128.8 1524.8,0.8 1492.9,0.8 		"/>
		<rect x="1499.9" y="129.4" width="24.9" height="6"/>
	</g>
	<g id="Layer_7_copy_2-2">
		<path d="M1505.3,135.3c1.6-0.4,3.3-0.6,5.2-0.5c4.8,0.1,9.5,0,14.2-0.1V0.8l-24.9,0.6v133.8
			C1501.7,135.2,1503.5,135.3,1505.3,135.3L1505.3,135.3z"/>
	</g>
	<g id="Layer_7_copy_5">
		<path d="M1418.7,0.9c-9.9,0-19.9-0.2-29.8,0.1c-1,0-2.1,0.1-3.2,0.2l68.9,127.6l0.8-52.5L1418.7,0.9L1418.7,0.9z"/>
		<rect x="1385.4" y="0.9" width="33.3" height="4.2"/>
	</g>
</g>
<g id="E_copy_2">
	<g id="Layer_2_copy_5">
		<polygon points="1627.9,24.2 1550.8,24.2 1550.8,1.3 1646.5,1.3 		"/>
	</g>
	<g id="Layer_2_copy_5-2">
		<polygon points="1618.4,80.9 1550.8,80.9 1550.8,58.1 1634.8,58.1 		"/>
	</g>
	<g id="Layer_2_copy_5-3">
		<polygon points="1627.9,134.8 1550.8,134.8 1550.8,112 1646.5,112 		"/>
	</g>
	<g id="Layer_4_copy_3">
		<rect x="1550.8" y="58.1" width="23.7" height="76.7"/>
	</g>
</g>
<g id="S">
	<path d="M1651.5,134.4l14.2-25.3h47.7c15.1-0.7,18.6,0.5,22.8-8.5l0.5-5.8l-0.6-5.1c-1.9-6.1-4.7-8.3-12.4-8.7h-11.9
		V55.4h10.7c4.2,0,8.2,0.6,12,1.7c17.6,5,30.5,20.6,30.5,39.2c0,22.5-13.7,39.2-37.2,39.2C1724.3,135.4,1651.5,134.4,1651.5,134.4
		L1651.5,134.4z"/>
	<path d="M1765.1,0.3l-21,26.7H1710c-15.1,0.7-18.6-0.5-22.8,8.5l-0.5,5.9l0.6,5.1c1.9,6.1,4.7,8.3,12.4,8.7h11.9v25.5
		h-10.7c-4.2,0-8.2-0.6-12-1.7c-17.6-5-30.5-20.6-30.5-39.1c0-22.5,13.7-39.2,37.2-39.2C1699.2,0.7,1765.1,0.3,1765.1,0.3z"/>
</g>
</svg>


