<?xml version="1.0" encoding="UTF-8"?>
<svg xmlns="http://www.w3.org/2000/svg" viewBox="0 0 2234.04 666.87">
  <defs>
    <style>
      .cls-1 {
        fill: #060606;
      }

      .cls-1,
      .cls-2,
      .cls-3 {
        stroke-width: 0px;
      }

      .cls-4 {
        stroke: #231f20;
      }

      .cls-4,
      .cls-5 {
        stroke-miterlimit: 10;
      }

      .cls-5 {
        stroke: #050606;
      }

      .cls-3 {
        fill: #050606;
      }
    </style>
  </defs>
  <g id="E_copy" data-name="E copy">
    <g id="Layer_2_copy_3" data-name="Layer 2 copy 3">
      <polygon class="cls-4" points="544.94 451.77 467.87 451.77 467.87 428.94 563.54 428.94 544.94 451.77" />
      <path class="cls-2" d="m2.41,5c3.22,0,3.22-5,0-5s-3.22,5,0,5h0Z" />
    </g>
    <g id="Layer_2_copy_3-2" data-name="Layer 2 copy 3">
      <polygon class="cls-4" points="535.5 508.55 467.87 508.55 467.87 485.72 551.82 485.72 535.5 508.55" />
    </g>
    <g id="Layer_2_copy_3-3" data-name="Layer 2 copy 3">
      <polygon class="cls-4" points="544.94 562.4 467.87 562.4 467.87 539.57 563.54 539.57 544.94 562.4" />
    </g>
    <g id="Layer_4_copy" data-name="Layer 4 copy">
      <rect class="cls-4" x="467.87" y="485.72" width="23.66" height="76.68" />
    </g>
  </g>
  <g id="M">
    <g id="Layer_7" data-name="Layer 7">
      <path class="cls-3" d="m588.93,428.76c-1.15.04-2.32.12-3.49.18v134.28h24.88v-134.61c-7.13-.04-14.27-.08-21.38.16Z" />
    </g>
    <g id="Layer_10" data-name="Layer 10">
      <polygon class="cls-3" points="654.8 504.09 654.64 556.54 724.75 428.58 692.87 428.58 654.8 504.09" />
      <rect class="cls-3" x="699.88" y="557.2" width="24.88" height="6.02" />
    </g>
    <g id="Layer_7_copy" data-name="Layer 7 copy">
      <path class="cls-3" d="m705.34,563.07c1.62-.4,3.32-.57,5.17-.54,4.75.08,9.49-.05,14.24-.07v-133.88s-24.88.59-24.88.59v133.81c1.82.02,3.64.06,5.46.09Z" />
    </g>
    <g id="Layer_7_copy_4" data-name="Layer 7 copy 4">
      <path class="cls-3" d="m618.73,428.64c-9.93,0-19.88-.2-29.8.12-1.04.03-2.1.11-3.15.16l68.86,127.62.75-52.45-36.66-75.46Z" />
      <rect class="cls-3" x="585.44" y="428.64" width="33.29" height="4.24" />
    </g>
  </g>
  <g id="P">
    <path class="cls-5" d="m747.84,499.06v64.2h23.81v-39.96h28.64c1.39,0,2.78-.06,4.14-.17,25.13-1.98,44.88-21.91,44.88-46.2s-19.75-45.94-44.88-47.92h-56.59v23.81c5.46-.16,23.81,0,23.81,0h32.78s21.75,5.46,21.75,24.11-21.75,22.56-21.75,22.56" />
  </g>
  <g id="I">
    <rect class="cls-5" x="864.17" y="428.57" width="24" height="134.76" />
  </g>
  <g id="Layer_14" data-name="Layer 14">
    <rect class="cls-5" x="913.9" y="429.14" width="24.59" height="134.63" />
    <path class="cls-5" d="m981.33,523.45c25.13-1.98,44.88-21.91,44.88-46.2s-19.75-45.94-44.88-47.92h-56.59v23.81c5.46-.16,23.81,0,23.81,0h32.78s21.75,5.46,21.75,24.11-21.75,22.56-21.75,22.56" />
    <path class="cls-5" d="m1017.95,563.47l-32.5-65.14-21.43,5.21,27.53,59.92c.36-.04,23.7.1,26.4,0Z" />
  </g>
  <g id="E">
    <g id="Layer_2" data-name="Layer 2">
      <polygon class="cls-4" points="1118.11 452.77 1041.04 452.77 1041.04 429.94 1136.71 429.94 1118.11 452.77" />
    </g>
    <g id="Layer_2_copy_2" data-name="Layer 2 copy 2">
      <polygon class="cls-4" points="1108.67 509.55 1041.04 509.55 1041.04 486.72 1124.99 486.72 1108.67 509.55" />
    </g>
    <g id="Layer_2_copy" data-name="Layer 2 copy">
      <polygon class="cls-4" points="1118.11 563.41 1041.04 563.41 1041.04 540.58 1136.71 540.58 1118.11 563.41" />
    </g>
    <g id="Layer_4" data-name="Layer 4">
      <rect class="cls-4" x="1041.04" y="486.72" width="23.66" height="76.68" />
    </g>
  </g>
  <g id="Layer_22" data-name="Layer 22">
    <path class="cls-1" d="m1282.99,428.68c-37.23,0-67.42,30.18-67.42,67.42s30.19,67.42,67.42,67.42,67.42-30.19,67.42-67.42-30.19-67.42-67.42-67.42Zm-1.93,115.13c-26.35,0-47.72-21.36-47.72-47.71s21.37-47.72,47.72-47.72,47.72,21.37,47.72,47.72-21.37,47.71-47.72,47.71Z" />
  </g>
  <g id="F">
    <g id="Layer_2_copy_4" data-name="Layer 2 copy 4">
      <polygon class="cls-4" points="1454.15 452.47 1377.09 452.47 1377.09 429.64 1472.76 429.64 1454.15 452.47" />
    </g>
    <g id="Layer_2_copy_4-2" data-name="Layer 2 copy 4">
      <polygon class="cls-4" points="1444.72 509.25 1377.09 509.25 1377.09 486.42 1461.04 486.42 1444.72 509.25" />
    </g>
    <g id="Layer_2_copy_4-3" data-name="Layer 2 copy 4">
      <line class="cls-4" x1="1377.09" y1="563.1" x2="1377.09" y2="540.27" />
    </g>
    <g id="Layer_4_copy_2" data-name="Layer 4 copy 2">
      <rect class="cls-4" x="1377.09" y="486.42" width="23.66" height="76.68" />
    </g>
  </g>
  <g id="Layer_31" data-name="Layer 31">
    <g id="Layer_28" data-name="Layer 28">
      <path class="cls-4" d="m1677.95,486.69v76.1h-73.59c-32.47-4.28-57.54-32.07-57.54-65.71,0-35.29,27.33-65.14,62.1-67.18h70.49l-17.9,21.88-.54.66h-47.85c-24.65,0-44.64,19.98-44.64,44.64s19.99,44.63,44.64,44.63h40.83v-55.02h24Z" />
    </g>
    <g id="Layer_29_copy" data-name="Layer 29 copy">
      <polygon class="cls-4" points="1607.05 508.25 1677.41 507.61 1677.41 486.05 1622.66 486.05 1607.05 508.25" />
    </g>
  </g>
  <g id="Layer_33" data-name="Layer 33">
    <g id="Layer_32" data-name="Layer 32">
      <polygon class="cls-4" points="1719.88 563.34 1692.65 563.22 1744.28 428.38 1768.11 428.74 1719.88 563.34" />
    </g>
    <g id="Layer_32_copy_2" data-name="Layer 32 copy 2">
      <polygon class="cls-4" points="1797.24 563.34 1824.46 563.22 1772.83 428.38 1749 428.74 1797.24 563.34" />
    </g>
  </g>
  <g id="M_copy" data-name="M copy">
    <g id="Layer_7_copy_2" data-name="Layer 7 copy 2">
      <path class="cls-3" d="m1856.81,428.56c-1.15.04-2.32.12-3.49.18v134.28h24.88v-134.61c-7.13-.04-14.27-.08-21.38.16Z" />
    </g>
    <g id="Layer_10_copy" data-name="Layer 10 copy">
      <polygon class="cls-3" points="1922.68 503.89 1922.52 556.34 1992.63 428.38 1960.75 428.38 1922.68 503.89" />
      <rect class="cls-3" x="1967.76" y="556.99" width="24.88" height="6.02" />
    </g>
    <g id="Layer_7_copy_2-2" data-name="Layer 7 copy 2">
      <path class="cls-3" d="m1973.22,562.87c1.62-.4,3.32-.57,5.17-.54,4.75.08,9.49-.05,14.24-.07v-133.88s-24.88.59-24.88.59v133.81c1.82.02,3.64.06,5.46.09Z" />
    </g>
    <g id="Layer_7_copy_5" data-name="Layer 7 copy 5">
      <path class="cls-3" d="m1886.61,428.44c-9.93,0-19.88-.2-29.8.12-1.04.03-2.1.11-3.15.16l68.86,127.62.75-52.45-36.66-75.46Z" />
      <rect class="cls-3" x="1853.32" y="428.44" width="33.29" height="4.24" />
    </g>
  </g>
  <g id="E_copy_2" data-name="E copy 2">
    <g id="Layer_2_copy_5" data-name="Layer 2 copy 5">
      <polygon class="cls-4" points="2095.74 451.74 2018.68 451.74 2018.68 428.91 2114.35 428.91 2095.74 451.74" />
    </g>
    <g id="Layer_2_copy_5-2" data-name="Layer 2 copy 5">
      <polygon class="cls-4" points="2086.31 508.52 2018.68 508.52 2018.68 485.69 2102.63 485.69 2086.31 508.52" />
    </g>
    <g id="Layer_2_copy_5-3" data-name="Layer 2 copy 5">
      <polygon class="cls-4" points="2095.74 562.37 2018.68 562.37 2018.68 539.54 2114.35 539.54 2095.74 562.37" />
    </g>
    <g id="Layer_4_copy_3" data-name="Layer 4 copy 3">
      <rect class="cls-4" x="2018.68" y="485.69" width="23.66" height="76.68" />
    </g>
  </g>
  <g id="S">
    <path class="cls-4" d="m2119.42,561.95l14.18-25.3h47.74c15.08-.66,18.62.49,22.83-8.5l.47-5.85-.56-5.11c-1.9-6.1-4.7-8.33-12.39-8.72h-11.95v-25.5h10.72c4.18,0,8.23.57,12.04,1.66,17.63,4.98,30.5,20.63,30.5,39.15,0,22.55-13.74,39.16-37.24,39.16-3.61,0-76.34-.99-76.34-.99Z" />
    <path class="cls-4" d="m2233.01,427.9l-21.03,26.7h-34.14c-15.08.66-18.62-.49-22.83,8.5l-.47,5.85.56,5.11c1.9,6.1,4.7,8.33,12.39,8.72h11.95v25.5h-10.72c-4.18,0-8.23-.57-12.04-1.66-17.63-4.98-30.5-20.63-30.5-39.15,0-22.55,13.74-39.16,37.24-39.16,3.61,0,69.59-.41,69.59-.41Z" />
  </g>
</svg>
